<?xml version="1.0" encoding="UTF-8"?>
<svg width="128" height="128" viewBox="0 0 128 128" xmlns="http://www.w3.org/2000/svg" role="img" aria-label="NexusAI icon">
    <defs>
        <linearGradient id="nexusBg" x1="16" y1="16" x2="112" y2="112" gradientUnits="userSpaceOnUse">
            <stop offset="0" stop-color="#0B1220"/>
            <stop offset="0.5" stop-color="#1D4ED8"/>
            <stop offset="1" stop-color="#0891B2"/>
        </linearGradient>
        <radialGradient id="nexusGlow" cx="0" cy="0" r="1" gradientUnits="userSpaceOnUse" gradientTransform="translate(64 58) rotate(90) scale(52)">
            <stop offset="0" stop-color="#38BDF8" stop-opacity="0.55"/>
            <stop offset="1" stop-color="#38BDF8" stop-opacity="0"/>
        </radialGradient>
    </defs>

    <rect x="8" y="8" width="112" height="112" rx="28" fill="url(#nexusBg)"/>
    <circle cx="64" cy="58" r="52" fill="url(#nexusGlow)"/>

    <g transform="translate(31 29) scale(2.75)" fill="none" stroke="#F8FAFC" stroke-width="1.9" stroke-linecap="round" stroke-linejoin="round">
        <path d="M12 5a3 3 0 1 0-5.997.125a4 4 0 0 0-2.526 5.77a4 4 0 0 0 .556 6.588A4 4 0 1 0 12 18Z"/>
        <path d="M9 13a4.5 4.5 0 0 0 3-4M6.003 5.125A3 3 0 0 0 6.401 6.5m-2.924 4.396a4 4 0 0 1 .585-.396M6 18a4 4 0 0 1-1.967-.516M12 13h4m-4 5h6a2 2 0 0 1 2 2v1M12 8h8m-4 0V5a2 2 0 0 1 2-2"/>
        <circle cx="16" cy="13" r="0.5"/>
        <circle cx="18" cy="3" r="0.5"/>
        <circle cx="20" cy="21" r="0.5"/>
        <circle cx="20" cy="8" r="0.5"/>
    </g>

    <g transform="translate(86 18) scale(1.1)" fill="none" stroke="#E2E8F0" stroke-width="1.7" stroke-linecap="round" stroke-linejoin="round" opacity="0.92">
        <path d="M11.017 2.814a1 1 0 0 1 1.966 0l1.051 5.558a2 2 0 0 0 1.594 1.594l5.558 1.051a1 1 0 0 1 0 1.966l-5.558 1.051a2 2 0 0 0-1.594 1.594l-1.051 5.558a1 1 0 0 1-1.966 0l-1.051-5.558a2 2 0 0 0-1.594-1.594l-5.558-1.051a1 1 0 0 1 0-1.966l5.558-1.051a2 2 0 0 0 1.594-1.594zM20 2v4m2-2h-4"/>
        <circle cx="4" cy="20" r="2"/>
    </g>
</svg>